<svg xmlns="http://www.w3.org/2000/svg" width="371" height="100" viewBox="0 0 371 100"><path fill-rule="evenodd" d="M29 10 H34 A7 7 0 0 1 41 17 V83 A7 7 0 0 1 34 90 H29 A7 7 0 0 1 22 83 V17 A7 7 0 0 1 29 10 Z M29 22 h5 a2 2 0 0 1 0 4 h-5 a2 2 0 0 1 0 -4 Z M29 31 h5 a2 2 0 0 1 0 4 h-5 a2 2 0 0 1 0 -4 Z M29 40 h2 a2 2 0 0 1 0 4 h-2 a2 2 0 0 1 0 -4 Z" fill="#23241f"></path><line x1="48" y1="52" x2="72" y2="20" stroke="#6b93a8" stroke-width="15" stroke-linecap="round"></line><line x1="48" y1="54" x2="74" y2="86" stroke="#6b93a8" stroke-width="15" stroke-linecap="round"></line><text x="130" y="66.5" font-family="Outfit, sans-serif" font-weight="600" font-size="64" letter-spacing="-0.64" fill="#23241f">kvitregn</text></svg>